 http://img210.imageshack.us/img210/5512/exdp.jpg
Format                                   : Matroska
Format version                           : Version 2
File size                                : 6.45 GiB
Duration                                 : 1h 45mn
Overall bit rate                         : 8 719 Kbps
Movie name                               : Men.In.Black.3.2012.720p Blu-ray x264 DTS.[Dual Audio].6Ch.[Hindi-English].by K@rtik [ExD Exclusive]
Format                                   : AVC
Format/Info                              : Advanced Video Codec
Format settings, ReFrames                : 8 frames
Duration                                 : 1h 45mn
Bit rate                                 : 6 573 Kbps
Width                                    : 1 280 pixels
Height                                   : 688 pixels
Display aspect ratio                     : 1.860
Frame rate                               : 23.976 fps
Chroma subsampling                       : 4:2:0
Bit depth                                : 8 bits
Scan type                                : Progressive
Bits/(Pixel*Frame)                       : 0.311
Stream size                              : 4.73 GiB (73%)
Title                                    : K@rtik
Codec ID                                 : A_DTS
Duration                                 : 1h 45mn
Bit rate                                 : 1 510 Kbps
Channel(s)                               : 6 channels
Channel positions                        : Front: L C R, Side: L R, LFE
Sampling rate                            : 48.0 KHz
Stream size                              : 1.12 GiB (17%)
Title                                    : K@rtik
Language                                 : English
Codec ID                                 : A_AC3
Duration                                 : 1h 45mn
Bit rate mode                            : Constant
Bit rate                                 : 640 Kbps
Channel(s)                               : 6 channels
Channel positions                        : Front: L C R, Side: L R, LFE
Sampling rate                            : 48.0 KHz
Bit depth                                : 16 bits
Stream size                              : 484 MiB (7%)
Title                                    : K@rtik
Language                                 : Hindihttp://img268.imageshack.us/img268/5407/17139244.png 
http://img109.imageshack.us/img109/1995/17189955.png 
http://img842.imageshack.us/img842/9903/35646477.png 
http://img38.imageshack.us/img38/9951/60982170.png 
http://img526.imageshack.us/img526/3323/39383289.png 
http://img534.imageshack.us/img534/599/48284231.png 
http://img14.imageshack.us/img14/246/58071407.png 
http://img717.imageshack.us/img717/5855/90440057.png

